<?xml version="1.0" encoding="utf-8"?>
<!-- Generator: Adobe Illustrator 28.0.0, SVG Export Plug-In . SVG Version: 6.00 Build 0)  -->
<svg version="1.1" id="Layer_1" xmlns="http://www.w3.org/2000/svg" xmlns:xlink="http://www.w3.org/1999/xlink" x="0px" y="0px"
	 viewBox="0 0 897.3 200" style="enable-background:new 0 0 897.3 200;" xml:space="preserve">
<style type="text/css">
	.st0{fill:#FFFFFF;}
</style>
<path class="st0" d="M119.1,109.3c0,24.3-1.4,35.3-8.7,42.8c-6,6.2-12.1,8.3-25.7,8.3H38c-13.5,0-19.7-2.1-25.7-8.3
	C3.9,143.4,0,130.4,0,96.2C0,62.1,3.9,49,12.4,40.3c5.7-6.2,12.1-8.3,25.7-8.3h46.7c13.5,0,19.7,2.1,25.7,8.3
	c7.1,7.3,8.9,17.9,8.7,41H77c-0.5-9.6-0.7-11.9-1.6-13.1c-1.4-1.6-3.2-2.1-8-2.1H56.1c-4.8,0-6.6,0.2-8,2.1c-1.4,1.6-2.3,5.5-2.3,28
	s0.9,26.3,2.3,27.9c1.4,1.8,3.2,2.1,8,2.1h11.2c4.8,0,6.6-0.5,8-2.1c1.1-1.1,1.4-3.9,1.6-14.9H119.1z M144.3,32.1h45.4v129.7
	c0,17.6-2.8,24.5-8.3,30c-4.8,4.8-11.9,8.2-27.5,8.2c-10.5,0-18.3-1.4-28.6-3.4v-32.8h8c5.7,0,8-0.5,9.2-1.6
	c1.4-1.4,1.8-3.7,1.8-8.7V32.1z M304.1,150.3c-2.7,8.7-6.6,10.5-15.3,10.5h-30.7c-8.7,0-12.6-1.8-15.3-10.5l-39-118.2h48.6
	l20.8,82.5h2.5l20.6-82.5H343L304.1,150.3z M433.5,66.2V32.1h-30.7V0l-32.9,0l-13.6,41.3v24.9v61.4c0,16,2.3,22,6.4,26.1
	c4.4,4.3,11.2,8,26.6,8c12.8,0,25.4-1.6,33-3.4l11-2.5V126h-19.5c-5.7,0-8-0.5-9.2-1.6c-1.4-1.4-1.8-3.7-1.8-8.7V66.2H433.5z
	 M478.6,14.7h11.5v40.5l37.6-40.5h14.1l-31.1,32.6l32.8,49.6h-13.4L503,55.5l-13,13.6v27.8h-11.5V14.7z M550.2,55.8
	c0-25.5,12.2-42.6,37.1-42.6s37.1,17.1,37.1,42.6c0,25.5-12.2,42.6-37.1,42.6S550.2,81.3,550.2,55.8z M612.6,55.8
	c0-16.1-5.2-32.6-25.3-32.6C567,23.3,562,39.8,562,55.8c0,16.1,5,32.6,25.3,32.6C607.5,88.4,612.6,71.9,612.6,55.8z M652.4,72.8
	c0.9,12.5,11.3,16.1,21.2,16.1c12.1,0,18-5.5,18-13.1c0-6.3-4.1-10.8-11.8-13l-18-5.2c-12.4-3.5-19.1-10.6-19.1-21.8
	c0-15.8,13.3-22.5,28.4-22.5c17.1,0,28.4,8.8,29.5,25.2h-11.3c-1-12.7-10.6-15.6-19-15.6c-10.6,0-16.1,4.7-16.1,12.2
	c0,6.5,4,10.8,11.8,13l18,5.2c11.3,3.2,19.1,9.4,19.1,21.8c0,17.1-14.6,23.4-30,23.4c-18,0-31.1-8.4-32.3-25.6H652.4z M735.6,24.6
	h-25.5v-9.9h62.5v9.9h-25.5v72.3h-11.5V24.6z M833.2,67.5c0,6-3.4,9.8-9.1,13.8l-5,3.5c-2.1,1.5-3.5,2.9-3.9,4.7h18.5v7.5h-29v-3
	c0-7.1,3.7-11.6,8.8-15l4.9-3.3c3.3-2.2,5.9-4.2,5.9-8c0-3.6-2.4-5.5-5.9-5.5c-4.1,0-6.3,2.5-6.3,6.9h-8.5c0-9.1,6.3-13.8,15.2-13.8
	C827.7,55.1,833.2,59.9,833.2,67.5z M842.3,87.2h9.7v9.7h-9.7V87.2z M894.5,76.4c0,12.9-5.1,21.3-17,21.3c-11.9,0-17-8.4-17-21.3
	c0-12.9,5.1-21.3,17-21.3C889.4,55.1,894.5,63.5,894.5,76.4z M869.8,76.4c0,8.1,1.5,13.8,7.7,13.8c6.1,0,7.7-5.7,7.7-13.8
	c0-8.1-1.5-13.8-7.7-13.8C871.4,62.5,869.8,68.3,869.8,76.4z"/>
</svg>
